<svg width="24" height="24" viewBox="0 0 24 24" fill="none" xmlns="http://www.w3.org/2000/svg">
  <circle cx="12" cy="12" r="3" stroke="currentColor" stroke-width="2"/>
  <path d="M8.56 2.75c.84-.18 1.72-.31 2.61-.38.9-.07 1.8-.07 2.7 0 .89.07 1.77.2 2.61.38M21.25 8.56c.18.84.31 1.72.38 2.61.07.9.07 1.8 0 2.7-.07.89-.2 1.77-.38 2.61M15.44 21.25c-.84.18-1.72.31-2.61.38-.9.07-1.8.07-2.7 0-.89-.07-1.77-.2-2.61-.38M2.75 15.44c-.18-.84-.31-1.72-.38-2.61-.07-.9-.07-1.8 0-2.7.07-.89.2-1.77.38-2.61" stroke="currentColor" stroke-width="2" stroke-linecap="round"/>
</svg>
